<?xml version="1.0" encoding="UTF-8"?>
<svg id="Layer_2" xmlns="http://www.w3.org/2000/svg" viewBox="0 0 142.33 142.33">
  <defs>
    <style>
      .cls-1 {
        fill: #fff;
      }

      .cls-2 {
        fill: #044065;
      }

      .cls-3 {
        fill: #fe8400;
      }
    </style>
  </defs>
  <g id="Layer_2-2" data-name="Layer_2">
    <g>
      <rect class="cls-2" x="0" width="142.33" height="142.33" rx="15.7" ry="15.7"/>
      <g>
        <g>
          <path class="cls-1" d="M96.53,32.93c-5.95,0-10.77,4.82-10.77,10.77,0,1.6.36,3.11.98,4.47l-6.08,4.42v8.66l10.96-7.97c1.47.76,3.14,1.19,4.91,1.19,5.95,0,10.77-4.82,10.77-10.77s-4.82-10.77-10.77-10.77ZM96.53,47.46c-2.08,0-3.77-1.69-3.77-3.77s1.69-3.77,3.77-3.77,3.77,1.69,3.77,3.77-1.69,3.77-3.77,3.77Z"/>
          <path class="cls-1" d="M81.93,27.95c0-5.95-4.82-10.77-10.77-10.77s-10.77,4.82-10.77,10.77c0,4.72,3.04,8.72,7.27,10.17v18.27l-11.78-7.95c.71-1.43,1.11-3.04,1.11-4.74,0-5.95-4.82-10.77-10.77-10.77s-10.77,4.82-10.77,10.77,4.82,10.77,10.77,10.77c1.63,0,3.17-.37,4.55-1.02l16.89,11.39v15.58c0,2.07,1.57,3.76,3.5,3.76s3.5-1.68,3.5-3.76v-42.29c4.23-1.45,7.27-5.45,7.27-10.17ZM42.45,43.69c0-2.08,1.69-3.77,3.77-3.77s3.77,1.69,3.77,3.77-1.69,3.77-3.77,3.77-3.77-1.69-3.77-3.77ZM71.16,31.71c-2.08,0-3.77-1.69-3.77-3.77s1.69-3.77,3.77-3.77,3.77,1.69,3.77,3.77-1.69,3.77-3.77,3.77Z"/>
        </g>
        <path class="cls-3" d="M115.85,103.85v5.21c0,.41-.26.77-.64.9l-43.75,15.13c-.2.07-.41.07-.61,0l-43.72-14.12c-.4-.13-.66-.5-.66-.91v-6.26c0-.66.65-1.12,1.27-.9l43.02,15.06c.2.07.43.07.63,0l43.19-15.02c.62-.22,1.27.25,1.27.9Z"/>
        <path class="cls-3" d="M115.85,90.8v5.38c0,.41-.26.77-.64.9l-43.82,15.23c-.2.07-.43.07-.63,0l-43.65-15.28c-.38-.13-.64-.5-.64-.9v-5.38c0-.66.65-1.12,1.27-.9l43.02,15.06c.2.07.43.07.63,0l43.19-15.02c.62-.22,1.27.25,1.27.9Z"/>
        <path class="cls-3" d="M115.85,80.26v2.88c0,.41-.26.77-.64.9l-43.83,15.23c-.2.07-.43.07-.63,0l-43.64-15.27c-.38-.13-.64-.5-.64-.9v-3.78c0-.43.28-.8.69-.92l33.53-9.66c.61-.18,1.22.28,1.22.92v11.15c0,4.88,3.65,9.11,8.51,9.55,5.56.5,10.24-3.88,10.24-9.33v-11.07c0-.64.62-1.1,1.24-.91l33.28,10.3c.4.12.67.49.67.91Z"/>
      </g>
    </g>
  </g>
</svg>