<svg width="674" height="143" viewBox="0 0 674 143" fill="none" xmlns="http://www.w3.org/2000/svg">
<g clip-path="url(#clip0_31_332)">
<path d="M595.963 107.779L624.764 34.4662H638.798L667.39 107.779H651.262L636.494 68.2948C636.075 67.1777 635.552 65.7463 634.923 64.0008C634.365 62.2553 633.771 60.405 633.143 58.45C632.515 56.495 631.921 54.6447 631.362 52.8992C630.804 51.0838 630.385 49.5826 630.106 48.3957H632.933C632.515 49.9317 632.026 51.5725 631.467 53.3181C630.978 54.9938 630.455 56.7393 629.896 58.5547C629.338 60.3002 628.744 62.0109 628.116 63.6866C627.487 65.3623 626.894 67.0031 626.335 68.609L611.568 107.779H595.963ZM609.369 92.3833L614.501 79.8154H648.12L653.356 92.3833H609.369Z" fill="#003F67"/>
<path d="M520.79 107.779V34.4662H534.825L575.356 89.2413H572.423C572.144 87.0768 571.9 84.9822 571.69 82.9574C571.481 80.8627 571.271 78.7681 571.062 76.6734C570.922 74.5089 570.783 72.3096 570.643 70.0753C570.573 67.7712 570.503 65.3623 570.434 62.8487C570.364 60.2653 570.329 57.4725 570.329 54.4701V34.4662H585.724V107.779H571.481L530.112 52.4802L534.091 52.585C534.44 56.2157 534.72 59.3227 534.929 61.9061C535.209 64.4197 535.418 66.6191 535.558 68.5043C535.767 70.3895 535.907 72.0303 535.977 73.4267C536.046 74.8231 536.081 76.1497 536.081 77.4065C536.151 78.6633 536.186 79.9899 536.186 81.3864V107.779H520.79Z" fill="#003F67"/>
<path d="M454.31 107.779V34.4662H503.848V48.2909H469.705V93.9543H504.581V107.779H454.31ZM461.641 77.0923V63.6866H498.821V77.0923H461.641Z" fill="#003F67"/>
<path d="M380.977 107.779V34.4662H413.444C417.982 34.4662 422.102 35.5136 425.802 37.6082C429.503 39.633 432.4 42.391 434.495 45.8821C436.659 49.3732 437.742 53.353 437.742 57.8216C437.742 62.2203 436.659 66.2351 434.495 69.8658C432.4 73.4267 429.503 76.2545 425.802 78.3491C422.102 80.4438 417.982 81.4911 413.444 81.4911H396.163V107.779H380.977ZM422.555 107.779L403.913 74.6835L420.042 72.0652L440.779 107.884L422.555 107.779ZM396.163 68.7137H412.711C414.596 68.7137 416.237 68.2948 417.633 67.457C419.099 66.5493 420.216 65.3274 420.984 63.7913C421.752 62.1854 422.137 60.405 422.137 58.45C422.137 56.3553 421.683 54.54 420.775 53.0039C419.867 51.4678 418.541 50.2808 416.795 49.443C415.05 48.5353 413.025 48.0815 410.721 48.0815H396.163V68.7137Z" fill="#003F67"/>
<path d="M299.255 107.779L328.057 34.4662H342.091L370.683 107.779H354.554L339.787 68.2948C339.368 67.1777 338.844 65.7463 338.216 64.0008C337.657 62.2553 337.064 60.405 336.435 58.45C335.807 56.495 335.213 54.6447 334.655 52.8992C334.096 51.0838 333.677 49.5826 333.398 48.3957H336.226C335.807 49.9317 335.318 51.5725 334.759 53.3181C334.271 54.9938 333.747 56.7393 333.188 58.5547C332.63 60.3002 332.036 62.0109 331.408 63.6866C330.78 65.3623 330.186 67.0031 329.628 68.609L314.86 107.779H299.255ZM312.661 92.3833L317.793 79.8154H351.412L356.648 92.3833H312.661Z" fill="#003F67"/>
<path d="M265.756 108.826C261.217 108.826 257.063 108.268 253.292 107.151C249.592 106.033 246.275 104.393 243.343 102.228C240.48 100.064 237.897 97.4454 235.593 94.3732L245.437 83.1668C248.859 87.9147 252.245 91.1614 255.596 92.9069C259.018 94.5827 262.718 95.4205 266.698 95.4205C268.863 95.4205 270.783 95.1063 272.458 94.4779C274.204 93.8495 275.565 93.0117 276.543 91.9644C277.52 90.8472 278.009 89.5206 278.009 87.9845C278.009 86.8674 277.765 85.855 277.276 84.9473C276.787 83.9698 276.089 83.1319 275.181 82.4337C274.274 81.6657 273.192 81.0024 271.935 80.4438C270.678 79.8154 269.282 79.2917 267.745 78.8728C266.209 78.3841 264.534 78 262.718 77.7207C258.808 76.8131 255.387 75.7308 252.455 74.474C249.522 73.1474 247.078 71.5415 245.123 69.6564C243.168 67.7013 241.702 65.502 240.724 63.0582C239.817 60.6145 239.363 57.8565 239.363 54.7843C239.363 51.6424 240.061 48.7448 241.458 46.0915C242.854 43.3685 244.774 41.0295 247.218 39.0745C249.731 37.1195 252.594 35.6183 255.806 34.571C259.088 33.5237 262.544 33 266.174 33C270.643 33 274.553 33.4888 277.904 34.4663C281.256 35.4438 284.154 36.91 286.597 38.865C289.111 40.7502 291.206 43.0543 292.881 45.7774L282.932 55.4127C281.465 53.4577 279.859 51.8169 278.114 50.4903C276.438 49.1637 274.588 48.1862 272.563 47.5578C270.608 46.8596 268.583 46.5105 266.489 46.5105C264.185 46.5105 262.195 46.8247 260.519 47.4531C258.843 48.0116 257.517 48.8844 256.539 50.0714C255.631 51.1885 255.178 52.5151 255.178 54.0512C255.178 55.308 255.492 56.4252 256.12 57.4027C256.749 58.3802 257.656 59.2529 258.843 60.021C260.03 60.7192 261.461 61.3476 263.137 61.9061C264.813 62.4647 266.663 62.9535 268.688 63.3724C272.528 64.1404 275.984 65.1529 279.057 66.4096C282.129 67.6664 284.747 69.2025 286.911 71.0179C289.146 72.7634 290.856 74.8581 292.043 77.3018C293.23 79.6757 293.824 82.3639 293.824 85.3662C293.824 90.3236 292.637 94.5478 290.263 98.0388C287.889 101.53 284.607 104.218 280.418 106.103C276.229 107.919 271.341 108.826 265.756 108.826Z" fill="#003F67"/>
<path d="M162 107.779V34.4662H192.058C197.434 34.4662 202.287 35.3739 206.616 37.1893C211.015 38.9348 214.785 41.4484 217.927 44.73C221.139 47.9418 223.583 51.782 225.258 56.2506C226.934 60.7192 227.772 65.6765 227.772 71.1226C227.772 76.4989 226.934 81.4562 225.258 85.9946C223.583 90.4632 221.174 94.3383 218.032 97.6199C214.89 100.832 211.12 103.345 206.721 105.161C202.322 106.906 197.434 107.779 192.058 107.779H162ZM177.71 96.3631L176.034 93.6401H191.535C194.677 93.6401 197.504 93.1164 200.018 92.0691C202.531 90.9519 204.661 89.4508 206.407 87.5656C208.222 85.6106 209.583 83.2366 210.491 80.4438C211.399 77.6509 211.853 74.5439 211.853 71.1226C211.853 67.7013 211.399 64.6292 210.491 61.9061C209.583 59.1133 208.222 56.7393 206.407 54.7843C204.661 52.8293 202.531 51.3282 200.018 50.2808C197.504 49.1637 194.677 48.6051 191.535 48.6051H175.72L177.71 46.0915V96.3631Z" fill="#003F67"/>
<path d="M126.63 0H15.7C7.02913 0 0 7.02913 0 15.7V126.63C0 135.301 7.02913 142.33 15.7 142.33H126.63C135.301 142.33 142.33 135.301 142.33 126.63V15.7C142.33 7.02913 135.301 0 126.63 0Z" fill="#044065"/>
<path d="M96.53 32.93C90.58 32.93 85.76 37.75 85.76 43.7C85.76 45.3 86.12 46.81 86.74 48.17L80.66 52.59V61.25L91.62 53.28C93.09 54.04 94.76 54.47 96.53 54.47C102.48 54.47 107.3 49.65 107.3 43.7C107.3 37.75 102.48 32.93 96.53 32.93ZM96.53 47.46C94.45 47.46 92.76 45.77 92.76 43.69C92.76 41.61 94.45 39.92 96.53 39.92C98.61 39.92 100.3 41.61 100.3 43.69C100.3 45.77 98.61 47.46 96.53 47.46Z" fill="white"/>
<path d="M81.93 27.95C81.93 22 77.11 17.18 71.16 17.18C65.21 17.18 60.3899 22 60.3899 27.95C60.3899 32.67 63.43 36.67 67.66 38.12V56.39L55.88 48.44C56.59 47.01 56.99 45.4 56.99 43.7C56.99 37.75 52.17 32.93 46.22 32.93C40.27 32.93 35.45 37.75 35.45 43.7C35.45 49.65 40.27 54.47 46.22 54.47C47.85 54.47 49.39 54.1 50.77 53.45L67.66 64.84V80.42C67.66 82.49 69.23 84.18 71.16 84.18C73.09 84.18 74.66 82.5 74.66 80.42V38.13C78.89 36.68 81.93 32.68 81.93 27.96V27.95ZM42.45 43.69C42.45 41.61 44.14 39.92 46.22 39.92C48.3 39.92 49.99 41.61 49.99 43.69C49.99 45.77 48.3 47.46 46.22 47.46C44.14 47.46 42.45 45.77 42.45 43.69ZM71.16 31.71C69.08 31.71 67.3899 30.02 67.3899 27.94C67.3899 25.86 69.08 24.17 71.16 24.17C73.24 24.17 74.93 25.86 74.93 27.94C74.93 30.02 73.24 31.71 71.16 31.71Z" fill="white"/>
<path d="M115.85 103.85V109.06C115.85 109.47 115.59 109.83 115.21 109.96L71.46 125.09C71.26 125.16 71.05 125.16 70.85 125.09L27.13 110.97C26.73 110.84 26.47 110.47 26.47 110.06V103.8C26.47 103.14 27.12 102.68 27.74 102.9L70.76 117.96C70.96 118.03 71.19 118.03 71.39 117.96L114.58 102.94C115.2 102.72 115.85 103.19 115.85 103.84V103.85Z" fill="#FE8400"/>
<path d="M115.85 90.8V96.18C115.85 96.59 115.59 96.95 115.21 97.08L71.39 112.31C71.19 112.38 70.96 112.38 70.76 112.31L27.11 97.03C26.73 96.9 26.47 96.53 26.47 96.13V90.75C26.47 90.09 27.12 89.63 27.74 89.85L70.76 104.91C70.96 104.98 71.19 104.98 71.39 104.91L114.58 89.89C115.2 89.67 115.85 90.14 115.85 90.79V90.8Z" fill="#FE8400"/>
<path d="M115.85 80.26V83.14C115.85 83.55 115.59 83.91 115.21 84.04L71.38 99.27C71.18 99.34 70.95 99.34 70.75 99.27L27.11 84C26.73 83.87 26.47 83.5 26.47 83.1V79.32C26.47 78.89 26.75 78.52 27.16 78.4L60.69 68.74C61.3 68.56 61.91 69.02 61.91 69.66V80.81C61.91 85.69 65.56 89.92 70.42 90.36C75.98 90.86 80.66 86.48 80.66 81.03V69.96C80.66 69.32 81.28 68.86 81.9 69.05L115.18 79.35C115.58 79.47 115.85 79.84 115.85 80.26Z" fill="#FE8400"/>
</g>
<defs>
<clipPath id="clip0_31_332">
<rect width="673.69" height="142.33" fill="white"/>
</clipPath>
</defs>
</svg>
