<?xml version="1.0" encoding="UTF-8"?>
<svg id="Layer_2" xmlns="http://www.w3.org/2000/svg" viewBox="0 0 608.06 142.33">
  <defs>
    <style>
      .cls-1 {
        fill: #fff;
      }

      .cls-2 {
        fill: #044065;
      }

      .cls-3 {
        fill: #fe8400;
      }

      .cls-4 {
        fill: #003f67;
      }
    </style>
  </defs>
  <g id="Layer_2-2" data-name="Layer_2">
    <g>
      <g>
        <path class="cls-4" d="M225.19,38.19c-3.17-3.23-6.92-5.74-11.27-7.51-4.35-1.77-9.2-2.66-14.56-2.66h-29.95v73.04h29.95c5.36,0,10.23-.89,14.61-2.66,4.38-1.77,8.14-4.28,11.27-7.51,3.13-3.23,5.53-7.1,7.2-11.58s2.5-9.41,2.5-14.76-.83-10.36-2.5-14.82c-1.67-4.45-4.09-8.29-7.25-11.53ZM217.73,73.82c-.9,2.78-2.24,5.13-4.02,7.04-1.77,1.91-3.91,3.41-6.42,4.49-2.5,1.08-5.32,1.62-8.45,1.62h-13.77v-44.87h13.77c3.13,0,5.95.54,8.45,1.62,2.5,1.08,4.64,2.59,6.42,4.54,1.77,1.95,3.11,4.3,4.02,7.04.9,2.75,1.36,5.83,1.36,9.23s-.45,6.5-1.36,9.29Z"/>
        <path class="cls-4" d="M293.95,64.38c-2.19-1.77-4.82-3.29-7.88-4.54-3.06-1.25-6.5-2.26-10.33-3.03-2.02-.42-3.86-.9-5.53-1.46-1.67-.56-3.1-1.2-4.28-1.93-1.18-.73-2.09-1.58-2.71-2.56-.63-.97-.94-2.09-.94-3.34,0-1.53.47-2.87,1.41-4.02.94-1.15,2.24-2.02,3.91-2.61,1.67-.59,3.65-.89,5.95-.89,2.09,0,4.12.33,6.1.99,1.98.66,3.82,1.65,5.53,2.97,1.7,1.32,3.29,2.96,4.75,4.9l9.91-9.6c-1.67-2.71-3.74-5.02-6.21-6.94-2.47-1.91-5.37-3.35-8.71-4.33-3.34-.97-7.24-1.46-11.69-1.46-3.62,0-7.04.52-10.28,1.57s-6.09,2.54-8.56,4.49c-2.47,1.95-4.4,4.26-5.79,6.94-1.39,2.68-2.09,5.58-2.09,8.71s.47,5.81,1.41,8.24c.94,2.44,2.38,4.61,4.33,6.52,1.95,1.91,4.38,3.51,7.3,4.8,2.92,1.29,6.33,2.38,10.23,3.29,1.81.28,3.48.64,5.01,1.1,1.53.45,2.92.97,4.17,1.56,1.25.59,2.33,1.25,3.23,1.98.9.73,1.6,1.57,2.09,2.5.49.94.73,1.97.73,3.08,0,1.53-.49,2.83-1.46,3.91-.97,1.08-2.31,1.93-4.02,2.56-1.71.63-3.64.94-5.79.94-3.96,0-7.63-.85-11.01-2.56-3.38-1.7-6.77-4.92-10.17-9.65l-9.81,11.16c2.3,3.06,4.89,5.67,7.77,7.83,2.89,2.16,6.19,3.79,9.91,4.9,3.72,1.11,7.84,1.67,12.36,1.67,5.56,0,10.43-.92,14.61-2.76,4.17-1.84,7.44-4.5,9.81-7.98,2.36-3.48,3.55-7.69,3.55-12.63,0-2.99-.59-5.69-1.77-8.09-1.18-2.4-2.87-4.49-5.06-6.26Z"/>
        <path class="cls-4" d="M334.9,28.02l-28.69,73.04h15.55l5.78-15.34h28.03l5.74,15.34h16.07l-28.48-73.04h-13.98ZM332.25,73.2l4.21-11.16c.56-1.6,1.15-3.23,1.77-4.9.63-1.67,1.22-3.39,1.77-5.17.55-1.76,1.09-3.48,1.61-5.18.52,1.64,1.06,3.34,1.63,5.13.63,1.95,1.23,3.79,1.83,5.53.59,1.74,1.1,3.17,1.51,4.28l4.29,11.48h-18.62Z"/>
        <path class="cls-4" d="M416.49,44.71c-2.78,0-5.44.66-7.98,1.98-2.54,1.32-4.75,3.15-6.63,5.48-.68.85-1.28,1.75-1.82,2.67l-.26-8.98h-14.29v55.19h14.92v-28.59c0-1.74.29-3.34.89-4.8.59-1.46,1.41-2.73,2.45-3.81,1.04-1.08,2.28-1.91,3.7-2.5,1.43-.59,2.97-.89,4.64-.89,1.25,0,2.49.16,3.7.47,1.22.31,2.21.68,2.97,1.1l3.96-16.28c-.77-.28-1.71-.52-2.82-.73-1.11-.21-2.26-.31-3.44-.31Z"/>
        <path class="cls-4" d="M472.05,52.49c-2.33-2.47-5.1-4.4-8.29-5.79-3.2-1.39-6.68-2.09-10.43-2.09-4.04,0-7.77.71-11.22,2.14-3.44,1.43-6.42,3.44-8.92,6.05-2.5,2.61-4.45,5.69-5.84,9.23-1.39,3.55-2.09,7.48-2.09,11.79,0,5.5,1.23,10.37,3.7,14.61,2.47,4.24,5.95,7.58,10.43,10.02,4.49,2.44,9.72,3.65,15.7,3.65,2.5,0,5.04-.31,7.62-.94,2.57-.63,5.08-1.55,7.51-2.77,2.43-1.22,4.66-2.73,6.68-4.54l-7.09-9.91c-2.3,1.88-4.45,3.2-6.47,3.96-2.02.77-4.24,1.15-6.68,1.15-3.55,0-6.62-.68-9.23-2.03s-4.63-3.25-6.05-5.69c-.81-1.38-1.38-2.92-1.73-4.59h39.35l.1-4.59c.14-3.89-.42-7.53-1.67-10.9-1.25-3.37-3.04-6.29-5.37-8.76ZM445.76,59.11c2.12-1.18,4.71-1.77,7.77-1.77,2.09,0,3.96.44,5.63,1.3,1.67.87,3.04,2.05,4.12,3.55,1.08,1.5,1.69,3.18,1.83,5.06v.42h-25.34c.27-1.2.64-2.33,1.13-3.34,1.11-2.3,2.73-4.03,4.85-5.22Z"/>
        <path class="cls-4" d="M532.26,47.22c-2.82-1.67-6.31-2.5-10.49-2.5-3.06,0-5.98.63-8.76,1.88-2.78,1.25-5.16,2.91-7.15,4.96-.49.5-.94,1.02-1.35,1.55l-.27-7.24h-14.19v55.19h14.82v-33.18c0-1.46.29-2.82.89-4.07.59-1.25,1.39-2.36,2.4-3.34,1.01-.97,2.23-1.72,3.65-2.24,1.42-.52,2.97-.78,4.64-.78,2.09-.07,3.84.28,5.27,1.04,1.42.77,2.49,1.98,3.18,3.65.69,1.67,1.04,3.76,1.04,6.26v32.66h14.82v-33.81c0-4.94-.71-9.09-2.14-12.47-1.43-3.37-3.55-5.9-6.37-7.56Z"/>
        <path class="cls-4" d="M593.35,45.86v7.26c-1.06-1.45-2.28-2.76-3.7-3.92-1.71-1.39-3.69-2.49-5.95-3.29-2.26-.8-4.75-1.2-7.46-1.2-4.8,0-9.08,1.22-12.83,3.65-3.76,2.44-6.73,5.81-8.92,10.12-2.19,4.31-3.29,9.25-3.29,14.82s1.08,10.5,3.23,14.82c2.16,4.31,5.08,7.72,8.76,10.23,3.69,2.5,7.83,3.76,12.42,3.76,2.57,0,5.01-.4,7.3-1.2s4.36-1.88,6.21-3.23c1.55-1.14,2.88-2.43,4.02-3.85v7.24h14.92v-55.19h-14.71ZM586.98,87.28c-2.09,1.32-4.52,1.98-7.3,1.98s-5.1-.66-7.15-1.98c-2.05-1.32-3.67-3.18-4.85-5.58-1.18-2.4-1.77-5.2-1.77-8.4s.59-5.88,1.77-8.24c1.18-2.36,2.8-4.23,4.85-5.58,2.05-1.36,4.43-2.03,7.15-2.03s5.22.68,7.3,2.03,3.7,3.22,4.85,5.58c1.15,2.37,1.72,5.11,1.72,8.24s-.57,6-1.72,8.4c-1.15,2.4-2.76,4.26-4.85,5.58Z"/>
      </g>
      <g>
        <rect class="cls-2" width="142.33" height="142.33" rx="15.7" ry="15.7"/>
        <g>
          <g>
            <path class="cls-1" d="M96.53,32.93c-5.95,0-10.77,4.82-10.77,10.77,0,1.6.36,3.11.98,4.47l-6.08,4.42v8.66l10.96-7.97c1.47.76,3.14,1.19,4.91,1.19,5.95,0,10.77-4.82,10.77-10.77s-4.82-10.77-10.77-10.77ZM96.53,47.46c-2.08,0-3.77-1.69-3.77-3.77s1.69-3.77,3.77-3.77,3.77,1.69,3.77,3.77-1.69,3.77-3.77,3.77Z"/>
            <path class="cls-1" d="M81.93,27.95c0-5.95-4.82-10.77-10.77-10.77s-10.77,4.82-10.77,10.77c0,4.72,3.04,8.72,7.27,10.17v18.27l-11.78-7.95c.71-1.43,1.11-3.04,1.11-4.74,0-5.95-4.82-10.77-10.77-10.77s-10.77,4.82-10.77,10.77,4.82,10.77,10.77,10.77c1.63,0,3.17-.37,4.55-1.02l16.89,11.39v15.58c0,2.07,1.57,3.76,3.5,3.76s3.5-1.68,3.5-3.76v-42.29c4.23-1.45,7.27-5.45,7.27-10.17ZM42.45,43.69c0-2.08,1.69-3.77,3.77-3.77s3.77,1.69,3.77,3.77-1.69,3.77-3.77,3.77-3.77-1.69-3.77-3.77ZM71.16,31.71c-2.08,0-3.77-1.69-3.77-3.77s1.69-3.77,3.77-3.77,3.77,1.69,3.77,3.77-1.69,3.77-3.77,3.77Z"/>
          </g>
          <path class="cls-3" d="M115.85,103.85v5.21c0,.41-.26.77-.64.9l-43.75,15.13c-.2.07-.41.07-.61,0l-43.72-14.12c-.4-.13-.66-.5-.66-.91v-6.26c0-.66.65-1.12,1.27-.9l43.02,15.06c.2.07.43.07.63,0l43.19-15.02c.62-.22,1.27.25,1.27.9Z"/>
          <path class="cls-3" d="M115.85,90.8v5.38c0,.41-.26.77-.64.9l-43.82,15.23c-.2.07-.43.07-.63,0l-43.65-15.28c-.38-.13-.64-.5-.64-.9v-5.38c0-.66.65-1.12,1.27-.9l43.02,15.06c.2.07.43.07.63,0l43.19-15.02c.62-.22,1.27.25,1.27.9Z"/>
          <path class="cls-3" d="M115.85,80.26v2.88c0,.41-.26.77-.64.9l-43.83,15.23c-.2.07-.43.07-.63,0l-43.64-15.27c-.38-.13-.64-.5-.64-.9v-3.78c0-.43.28-.8.69-.92l33.53-9.66c.61-.18,1.22.28,1.22.92v11.15c0,4.88,3.65,9.11,8.51,9.55,5.56.5,10.24-3.88,10.24-9.33v-11.07c0-.64.62-1.1,1.24-.91l33.28,10.3c.4.12.67.49.67.91Z"/>
        </g>
      </g>
    </g>
  </g>
</svg>